# xmcd CD database file
#
# Track frame offsets:
#	183
#	22113
#	55033
#	102858
#	135008
#	168033
#	197983
#	235308
#
# Disc length: 3528 seconds
#
# Revision: 0
# Processed by: cddbd v1.5.1PL0 Copyright (c) Steve Scherf et al.
# Submitted via: CDex 1.51
#
DISCID=5d0dc608
DTITLE=Oscar Peterson - Dizionario Enciclopedico del Jazz - Volume 28
DYEAR=1991
DGENRE=Jazz
TTITLE0=Younger Than Springtime
TTITLE1=Nigerian Marketplace
TTITLE2=Medley: Hymn To Freedom/The Fallen Warrior
TTITLE3=For Count
TTITLE4=The Good Life
TTITLE5=Just Friends
TTITLE6=Baubles, Bangles And Beads
TTITLE7=It's A Wonderful World
EXTD=YEAR: 1991
EXTT0=
EXTT1=
EXTT2=
EXTT3=
EXTT4=
EXTT5=
EXTT6=
EXTT7=
PLAYORDER=
